<?xml version="1.0" encoding="UTF-8"?>
<svg id="Capa_2" data-name="Capa 2" xmlns="http://www.w3.org/2000/svg" xmlns:xlink="http://www.w3.org/1999/xlink" viewBox="0 0 1210 368.81">
  <defs>
    <style>
      .cls-1 {
        fill: #0f3584;
      }

      .cls-2 {
        fill: #1a418a;
      }

      .cls-3 {
        fill: #fff;
      }

      .cls-4 {
        fill: #2d549c;
      }

      .cls-5 {
        fill: url(#Degradado_sin_nombre_9-2);
      }

      .cls-6 {
        fill: url(#Degradado_sin_nombre_9);
      }
    </style>
    <linearGradient id="Degradado_sin_nombre_9" data-name="Degradado sin nombre 9" x1=".04" y1="135.57" x2="390.45" y2="135.57" gradientUnits="userSpaceOnUse">
      <stop offset="0" stop-color="#1a438e"/>
      <stop offset="1" stop-color="#3d79d2"/>
    </linearGradient>
    <linearGradient id="Degradado_sin_nombre_9-2" data-name="Degradado sin nombre 9" x1="60.1" y1="368.14" x2="366.24" y2="218.28" xlink:href="#Degradado_sin_nombre_9"/>
  </defs>
  <g id="Capa_1-2" data-name="Capa 1">
    <g>
      <g>
        <g>
          <path class="cls-6" d="M.04,109.68v161.46s93.26-5.97,171.42-48.84c45.69-25.06,144.51-57.81,211.29-91.69,0,0,34.88-127.57-43.85-130.56-78.74-2.99-152.49,144.51-152.49,144.51,0,0-33.89-24.92-186.37-34.88Z"/>
          <path class="cls-1" d="M112.52,247.89s50-44.9,73.9-103.33l-5.62-3.13S124.57,250.11,0,269.27l.04,1.86s46.25-1.75,112.48-23.24h0Z"/>
          <path class="cls-4" d="M120.95,244.32s174.41-92.23,261.8-113.72c0,0-242.41,109.27-261.8,113.72Z"/>
        </g>
        <g>
          <path class="cls-5" d="M28.42,310.13s53.82,61.79,131.56,57.81,163.45-26.91,209.3-183.38c0,0-44.85,1.99-137.54,49.83s-119.6,82.72-203.32,75.75Z"/>
          <path class="cls-2" d="M369.74,185.15s-54.38,158.12-200.1,165.89c-14.77.79-29.59-.93-43.85-4.85-19-5.22-46.47-15.41-68.85-34.25l-28.06-1.22s54.75,63.12,128.61,57.76c100.15-7.27,166.38-37.15,212.24-183.33Z"/>
        </g>
      </g>
      <g>
        <path class="cls-3" d="M530.59,292.12v-51.21h-63.71v51.21h-18.17v-108.58h18.17v47.37h63.71v-47.37h18.18v108.58h-18.18Z"/>
        <path class="cls-3" d="M613.6,294.12c-27.92,0-43.66-16.15-43.66-39.99,0-15.99,8.43-41.83,45.53-41.83,27.92,0,43.66,16.15,43.66,39.99,0,15.99-8.43,41.83-45.53,41.83ZM613.97,221.07c-17.99,0-24.92,12.15-24.92,32.14,0,17.99,6.75,32.14,26.05,32.14,17.99,0,24.92-12.3,24.92-32.3,0-17.99-6.75-31.99-26.04-31.99Z"/>
        <path class="cls-3" d="M727.52,227.68c-2.81-1.69-6.93-3.69-14.8-3.69-8.99,0-15.55,3.08-15.55,3.08v65.05h-17.99v-77.97h17.61v9.23s8.62-10.76,22.86-10.76c6.75,0,10.31,1.54,12.93,2.46l-5.06,12.61Z"/>
        <path class="cls-3" d="M752.44,199.84c-6.56,0-11.06-3.38-11.06-8.61,0-5.69,4.5-9.07,11.43-9.07,6.56,0,11.06,3.38,11.06,8.61,0,5.69-4.5,9.07-11.43,9.07ZM743.82,292.12v-77.97h17.99v77.97h-17.99Z"/>
        <path class="cls-3" d="M779.05,292.12v-8.77l50.4-60.59h-47.03v-8.31h66.33v8.15l-49.84,61.06h52.09v8.46h-71.95Z"/>
        <path class="cls-3" d="M905.15,294.12c-27.92,0-43.66-16.15-43.66-39.99,0-15.99,8.43-41.83,45.53-41.83,27.92,0,43.66,16.15,43.66,39.99,0,15.99-8.43,41.83-45.53,41.83ZM905.52,221.07c-17.99,0-24.92,12.15-24.92,32.14,0,17.99,6.75,32.14,26.05,32.14,17.99,0,24.92-12.3,24.92-32.3,0-17.99-6.75-31.99-26.04-31.99Z"/>
        <path class="cls-3" d="M1030.13,292.12v-41.06c0-5.84,0-10.61-.75-14.61-2.06-10.3-10.68-14-22.67-14-10.31,0-17.99,3.38-17.99,3.38v66.29h-17.99v-77.97h17.61v7.69s8.81-9.38,28.48-9.38,27.54,9.69,29.79,17.53c1.5,5.54,1.5,11.84,1.5,15.38v46.75h-17.99Z"/>
        <path class="cls-3" d="M1102.08,293.04c-13.3,0-21.74-2.92-25.48-12.3-1.5-3.69-1.69-10.92-1.69-15.99v-41.99h-13.3v-6.15l1.87-.62c10.49-3.38,17.24-8.92,18.36-18.3l.19-1.54h10.87v18.3h30.73v8.31h-30.73v45.52c0,8.46,1.87,15.53,15.18,15.53,7.5,0,12.55-2.31,12.55-2.31l3.37,8.61c-.56.15-8.06,2.92-21.92,2.92Z"/>
        <path class="cls-3" d="M1148.92,250.44v2.15c0,27.53,21.36,31.22,32.98,31.22,13.12,0,20.24-3.69,20.24-3.69l3.75,8.77s-9.56,4.46-27.92,4.46c-20.05,0-47.22-5.23-47.22-40.14,0-14,6.75-40.75,42.16-40.75,15.74,0,25.11,4.61,30.73,12,4.68,6.15,6.37,14.46,6.37,23.53v2.46h-61.08ZM1191.08,240.6c0-13.23-6.37-20.15-20.05-20.15-9.93,0-16.68,3.84-19.67,11.84-1.87,4.92-1.87,9.84-1.87,10.15h41.6v-1.85Z"/>
      </g>
    </g>
  </g>
</svg>